<svg id="fog" xmlns="http://www.w3.org/2000/svg" viewBox="0 0 280 208.5"><title>fog</title><path d="M797,337.2762c0-32.0827-26.1913-58.0909-58.5-58.0909a58.8689,58.8689,0,0,0-16.2612,2.2917A87.5631,87.5631,0,0,0,644.5,234.5c-46.1755,0-83.9935,35.5185-87.2665,80.5427-.9038-.0648-1.8132-.1091-2.7335-.1091A37.37,37.37,0,0,0,517,352.1713a36.8138,36.8138,0,0,0,2.2861,12.7592A14.5286,14.5286,0,0,0,533.5,376.5h241a14.5235,14.5235,0,0,0,11.71-5.958h.2361A57.5275,57.5275,0,0,0,797,337.2762Z" transform="translate(-517 -234.5)" style="fill:#bbbec2"/><line x1="16.5" y1="152" x2="135.5" y2="152" style="fill:none;stroke:#fff;stroke-linecap:round;stroke-linejoin:round;stroke-width:5px"/><line x1="65.5" y1="170" x2="263.5" y2="170" style="fill:none;stroke:#fff;stroke-linecap:round;stroke-linejoin:round;stroke-width:5px"/><line x1="24.5" y1="188" x2="197.5" y2="188" style="fill:none;stroke:#fff;stroke-linecap:round;stroke-linejoin:round;stroke-width:5px"/><line x1="118.5" y1="206" x2="244.5" y2="206" style="fill:none;stroke:#fff;stroke-linecap:round;stroke-linejoin:round;stroke-width:5px"/></svg>