<svg id="partly-cloudy-night" xmlns="http://www.w3.org/2000/svg" viewBox="0 0 305.97 225.52"><defs><style>.cls-1{fill:#f1f1f1;}.cls-2{fill:#fafcff;}</style></defs><title>partly-cloudy-night</title><path class="cls-1" d="M685,229a82,82,0,0,1-69.81-125A80,80,0,1,0,720,221.18,81.67,81.67,0,0,1,685,229Z" transform="translate(-414 -103.98)"/><path class="cls-2" d="M694,290.28a58.55,58.55,0,0,0-74.76-55.8,87.57,87.57,0,0,0-77.74-47c-46.18,0-84,35.52-87.27,80.54-.9-.06-1.81-.11-2.73-.11A37.38,37.38,0,0,0,414,305.17a36.73,36.73,0,0,0,2.29,12.76A14.52,14.52,0,0,0,430.5,329.5h241a14.52,14.52,0,0,0,11.71-6h.24A57.54,57.54,0,0,0,694,290.28Z" transform="translate(-414 -103.98)"/></svg>