<svg id="Layer_1" data-name="Layer 1" xmlns="http://www.w3.org/2000/svg" viewBox="0 0 284.5 200"><defs><style>.cls-1{fill:#59f87d;}.cls-2{fill:#fafcff;}</style></defs><title>partly-cloudy-day</title><circle class="cls-1" cx="204.5" cy="80" r="80"/><path class="cls-2" d="M834,541.28a58.55,58.55,0,0,0-74.76-55.8,87.57,87.57,0,0,0-77.74-47c-46.18,0-84,35.52-87.27,80.54-.9-.06-1.81-.11-2.73-.11A37.38,37.38,0,0,0,554,556.17a36.73,36.73,0,0,0,2.29,12.76A14.52,14.52,0,0,0,570.5,580.5h241a14.52,14.52,0,0,0,11.71-6h.24A57.54,57.54,0,0,0,834,541.28Z" transform="translate(-554 -380.5)"/></svg>