<svg id="windy" xmlns="http://www.w3.org/2000/svg" viewBox="0 0 280 209.41"><defs><style>.cls-1{fill:#fafcff;}.cls-2{fill:none;stroke:#fff;stroke-linecap:round;stroke-linejoin:round;stroke-width:5px;}</style></defs><title>wind</title><path class="cls-1" d="M790,315.28a58.55,58.55,0,0,0-74.76-55.8,87.57,87.57,0,0,0-77.74-47c-46.18,0-84,35.52-87.27,80.54-.9-.06-1.81-.11-2.73-.11A37.38,37.38,0,0,0,510,330.17a36.73,36.73,0,0,0,2.29,12.76A14.52,14.52,0,0,0,526.5,354.5h241a14.52,14.52,0,0,0,11.71-6h.24A57.54,57.54,0,0,0,790,315.28Z" transform="translate(-510 -212.5)"/><path class="cls-2" d="M527.5,370.5H735.59c10.86.57,15.88,2.24,21.15,8.58,5.72,6.86,5.72,20.58-5.71,27.44-6.28,3.76-18.3,4.57-25.73-2.86-3.43-3.43-4-9.72-4-9.72" transform="translate(-510 -212.5)"/><path class="cls-2" d="M527.5,391.5H677.09c7.81.41,11.42,1.61,15.21,6.16,4.11,4.94,4.11,14.8-4.11,19.73-4.51,2.71-13.15,3.29-18.49-2.05-2.47-2.47-2.88-7-2.88-7" transform="translate(-510 -212.5)"/></svg>