<svg id="fog" xmlns="http://www.w3.org/2000/svg" viewBox="0 0 280 208.5"><defs><style>.cls-1{fill:#d5d8dc;}.cls-2{fill:none;stroke:#fff;stroke-linecap:round;stroke-linejoin:round;stroke-width:5px;}</style></defs><title>fog</title><path class="cls-1" d="M797,337.28a58.55,58.55,0,0,0-74.76-55.8,87.57,87.57,0,0,0-77.74-47c-46.18,0-84,35.52-87.27,80.54-.9-.06-1.81-.11-2.73-.11A37.38,37.38,0,0,0,517,352.17a36.73,36.73,0,0,0,2.29,12.76A14.52,14.52,0,0,0,533.5,376.5h241a14.52,14.52,0,0,0,11.71-6h.24A57.54,57.54,0,0,0,797,337.28Z" transform="translate(-517 -234.5)"/><line class="cls-2" x1="16.5" y1="152" x2="135.5" y2="152"/><line class="cls-2" x1="65.5" y1="170" x2="263.5" y2="170"/><line class="cls-2" x1="24.5" y1="188" x2="197.5" y2="188"/><line class="cls-2" x1="118.5" y1="206" x2="244.5" y2="206"/></svg>