<svg id="rain" xmlns="http://www.w3.org/2000/svg" viewBox="0 0 280 209.31"><defs><style>.cls-1{fill:#d5d8dc;}.cls-2{fill:#fad8ff;}</style></defs><title>rain</title><path class="cls-1" d="M846,422.28a58.55,58.55,0,0,0-74.76-55.8,87.57,87.57,0,0,0-77.74-47c-46.18,0-84,35.52-87.27,80.54-.9-.06-1.81-.11-2.73-.11A37.38,37.38,0,0,0,566,437.17a36.73,36.73,0,0,0,2.29,12.76A14.52,14.52,0,0,0,582.5,461.5h241a14.52,14.52,0,0,0,11.71-6h.24A57.54,57.54,0,0,0,846,422.28Z" transform="translate(-566 -319.5)"/><rect class="cls-2" x="635" y="472" width="8" height="58" rx="4" ry="4" transform="translate(-382.5 -490.69) rotate(17.78)"/><rect class="cls-2" x="690" y="472" width="8" height="58" rx="4" ry="4" transform="translate(-379.87 -507.49) rotate(17.78)"/><rect class="cls-2" x="748" y="472" width="8" height="58" rx="4" ry="4" transform="translate(-377.1 -525.2) rotate(17.78)"/><rect class="cls-2" x="580" y="472" width="8" height="58" rx="4" ry="4" transform="translate(-385.12 -473.9) rotate(17.78)"/><rect class="cls-2" x="806" y="472" width="8" height="58" rx="4" ry="4" transform="translate(-374.33 -542.91) rotate(17.78)"/></svg>