<svg id="rain" xmlns="http://www.w3.org/2000/svg" viewBox="0 0 280 209.3052"><title>rain</title><path d="M846,422.2762c0-32.0827-26.1913-58.0909-58.5-58.0909a58.8689,58.8689,0,0,0-16.2612,2.2917A87.5631,87.5631,0,0,0,693.5,319.5c-46.1755,0-83.9935,35.5185-87.2665,80.5427-.9038-.0648-1.8132-.1091-2.7335-.1091A37.37,37.37,0,0,0,566,437.1713a36.8138,36.8138,0,0,0,2.2861,12.7592A14.5286,14.5286,0,0,0,582.5,461.5h241a14.5235,14.5235,0,0,0,11.71-5.958h.2361A57.5275,57.5275,0,0,0,846,422.2762Z" transform="translate(-566 -319.5)" style="fill:#bbbec2"/><rect x="635" y="472" width="8" height="58" rx="4" ry="4" transform="translate(-382.4971 -490.6937) rotate(17.7796)" style="fill:#fffaff"/><rect x="690" y="472" width="8" height="58" rx="4" ry="4" transform="translate(-379.8702 -507.4883) rotate(17.7796)" style="fill:#fffaff"/><rect x="748" y="472" width="8" height="58" rx="4" ry="4" transform="translate(-377.1001 -525.1989) rotate(17.7796)" style="fill:#fffaff"/><rect x="580" y="472" width="8" height="58" rx="4" ry="4" transform="translate(-385.124 -473.8991) rotate(17.7796)" style="fill:#fffaff"/><rect x="806" y="472" width="8" height="58" rx="4" ry="4" transform="translate(-374.3299 -542.9095) rotate(17.7796)" style="fill:#fffaff"/></svg>