<svg id="sleet" xmlns="http://www.w3.org/2000/svg" viewBox="0 0 280 209.31"><defs><style>.cls-1{fill:#fafcff;}.cls-2{fill:#d5d8dc;}.cls-3{fill:#fad8ff;}</style></defs><title>sleet</title><circle class="cls-1" cx="45.5" cy="182" r="8.5"/><circle class="cls-1" cx="100.5" cy="182" r="8.5"/><circle class="cls-1" cx="154.5" cy="182" r="8.5"/><circle class="cls-1" cx="213.5" cy="182" r="8.5"/><path class="cls-2" d="M625,211.28a58.55,58.55,0,0,0-74.76-55.8,87.57,87.57,0,0,0-77.74-47c-46.18,0-84,35.52-87.27,80.54-.9-.06-1.81-.11-2.73-.11A37.38,37.38,0,0,0,345,226.17a36.73,36.73,0,0,0,2.29,12.76A14.52,14.52,0,0,0,361.5,250.5h241a14.52,14.52,0,0,0,11.71-6h.24A57.54,57.54,0,0,0,625,211.28Z" transform="translate(-345 -108.5)"/><rect class="cls-3" x="414" y="261" width="8" height="58" rx="4" ry="4" transform="translate(-236.48 -222.29) rotate(17.78)"/><rect class="cls-3" x="469" y="261" width="8" height="58" rx="4" ry="4" transform="translate(-233.86 -239.08) rotate(17.78)"/><rect class="cls-3" x="527" y="261" width="8" height="58" rx="4" ry="4" transform="translate(-231.09 -256.79) rotate(17.78)"/><rect class="cls-3" x="359" y="261" width="8" height="58" rx="4" ry="4" transform="translate(-239.11 -205.49) rotate(17.78)"/><rect class="cls-3" x="585" y="261" width="8" height="58" rx="4" ry="4" transform="translate(-228.32 -274.5) rotate(17.78)"/></svg>