<svg id="sleet" xmlns="http://www.w3.org/2000/svg" viewBox="0 0 280 209.3052"><title>sleet</title><circle cx="45.5" cy="182" r="8.5" style="fill:#fafcff"/><circle cx="100.5" cy="182" r="8.5" style="fill:#fafcff"/><circle cx="154.5" cy="182" r="8.5" style="fill:#fafcff"/><circle cx="213.5" cy="182" r="8.5" style="fill:#fafcff"/><path d="M625,211.2762c0-32.0827-26.1913-58.0909-58.5-58.0909a58.8689,58.8689,0,0,0-16.2612,2.2917A87.5631,87.5631,0,0,0,472.5,108.5c-46.1755,0-83.9935,35.5185-87.2665,80.5427-.9038-.0648-1.8132-.1091-2.7335-.1091A37.37,37.37,0,0,0,345,226.1713a36.8138,36.8138,0,0,0,2.2861,12.7592A14.5286,14.5286,0,0,0,361.5,250.5h241a14.5235,14.5235,0,0,0,11.71-5.958h.2361A57.5275,57.5275,0,0,0,625,211.2762Z" transform="translate(-345 -108.5)" style="fill:#bbbec2"/><rect x="414" y="261" width="8" height="58" rx="4" ry="4" transform="translate(-236.4825 -222.2878) rotate(17.7796)" style="fill:#fffaff"/><rect x="469" y="261" width="8" height="58" rx="4" ry="4" transform="translate(-233.8556 -239.0824) rotate(17.7796)" style="fill:#fffaff"/><rect x="527" y="261" width="8" height="58" rx="4" ry="4" transform="translate(-231.0854 -256.793) rotate(17.7796)" style="fill:#fffaff"/><rect x="359" y="261" width="8" height="58" rx="4" ry="4" transform="translate(-239.1094 -205.4932) rotate(17.7796)" style="fill:#fffaff"/><rect x="585" y="261" width="8" height="58" rx="4" ry="4" transform="translate(-228.3153 -274.5036) rotate(17.7796)" style="fill:#fffaff"/></svg>