<svg id="snow" xmlns="http://www.w3.org/2000/svg" viewBox="0 0 280 173.5"><defs><style>.cls-1{fill:#d5d8dc;}.cls-2{fill:#fafcff;}</style></defs><title>snow</title><path class="cls-1" d="M889,329.28a58.55,58.55,0,0,0-74.76-55.8,87.57,87.57,0,0,0-77.74-47c-46.18,0-84,35.52-87.27,80.54-.9-.06-1.81-.11-2.73-.11A37.38,37.38,0,0,0,609,344.17a36.73,36.73,0,0,0,2.29,12.76A14.52,14.52,0,0,0,625.5,368.5h241a14.52,14.52,0,0,0,11.71-6h.24A57.54,57.54,0,0,0,889,329.28Z" transform="translate(-609 -226.5)"/><circle class="cls-2" cx="23.5" cy="165" r="8.5"/><circle class="cls-2" cx="78.5" cy="165" r="8.5"/><circle class="cls-2" cx="132.5" cy="165" r="8.5"/><circle class="cls-2" cx="191.5" cy="165" r="8.5"/><circle class="cls-2" cx="249.5" cy="165" r="8.5"/></svg>